<?xml version="1.0" encoding="iso-8859-1"?>
<!-- Uploaded to: SVG Repo, www.svgrepo.com, Generator: SVG Repo Mixer Tools -->
<!DOCTYPE svg PUBLIC "-//W3C//DTD SVG 1.1//EN" "http://www.w3.org/Graphics/SVG/1.1/DTD/svg11.dtd">
<svg fill="#000000" version="1.1" id="Capa_1" xmlns="http://www.w3.org/2000/svg" xmlns:xlink="http://www.w3.org/1999/xlink" 
	 width="800px" height="800px" viewBox="0 0 25.121 25.121"
	 xml:space="preserve">
<g>
	<g>
		<path d="M13.609,18.463c-0.174-3.644-0.614-8.299-1.668-12.701h-1.073c0.627,5.05,0.531,10.808,0.344,14.725
			c-0.959-2.631-2.427-5.941-4.477-8.72l-0.653,0.458c3.277,6.142,3.776,12.895,3.776,12.895h1.042h1.042h0.695h1.042h1.041
			c0,0,0.515-7.907,3.807-14.954l-0.653-0.571C15.906,12.377,14.535,15.643,13.609,18.463z"/>
		<polygon points="9.614,5.623 11.223,4.449 13.102,5.107 12.481,3.215 13.688,1.632 11.698,1.637 10.565,0 9.955,1.894 
			8.047,2.466 9.66,3.632 		"/>
		<polygon points="21.493,6.933 21.741,4.958 20.021,5.961 18.222,5.115 18.645,7.06 17.282,8.512 19.263,8.71 20.221,10.454 
			21.023,8.631 22.979,8.257 		"/>
		<polygon points="6.583,9.217 7.223,7.333 5.337,7.971 3.743,6.781 3.768,8.771 2.143,9.92 4.043,10.513 4.635,12.413 
			5.784,10.787 7.774,10.813 		"/>
	</g>
</g>
</svg>